<svg xmlns="http://www.w3.org/2000/svg" xmlns:xlink="http://www.w3.org/1999/xlink" width="248" height="347" viewBox="0 0 248 347">
  <defs>
    <clipPath id="clip-path">
      <path id="Path_318" data-name="Path 318" d="M266.41,203.557a4.592,4.592,0,0,0-3.667-1.837H161.415a4.592,4.592,0,0,0-4.4,5.878l50.668,173.289a4.585,4.585,0,0,0,8.8,0L267.159,207.57a4.571,4.571,0,0,0-.749-4.013Z" transform="translate(-156.83 -201.72)" fill="none"/>
    </clipPath>
    <clipPath id="clip-path-3">
      <path id="Path_330" data-name="Path 330" d="M167.656,92.872c-3.836-7.474-6.358-15.966-6.789-22.3C158.719,38.934,183.777,11,215.794,11a55.039,55.039,0,0,1,55.034,55.034c0,17.266-14.412,29.82-12.6,45.828,1,8.859,8,29.756-4,34.348-13.239,5.065-8.675-30.993-14.97-35.684-7.771-5.814-10.505,4.7-17.577,3.349-8.372-1.611-7.7-16.129-17.768-15.542-11.918.706-10.265,19.477-25.136,8.76C174.516,104.034,170.679,98.771,167.656,92.872Z" transform="translate(-160.738 -11)" fill="none"/>
    </clipPath>
    <clipPath id="clip-product-img-escope">
      <rect width="248" height="347"/>
    </clipPath>
  </defs>
  <g id="product-img-escope" clip-path="url(#clip-product-img-escope)">
    <g id="ice-cream-img2" transform="matrix(0.978, -0.208, 0.208, 0.978, -168.742, 67.098)">
      <g id="Layer_1" data-name="Layer 1" transform="translate(171.1 6.64)">
        <path id="Path_315" data-name="Path 315" d="M266.41,203.557a4.592,4.592,0,0,0-3.667-1.837H161.415a4.592,4.592,0,0,0-4.4,5.878l50.668,173.289a4.585,4.585,0,0,0,8.8,0L267.159,207.57a4.571,4.571,0,0,0-.749-4.013Z" transform="translate(-123.513 -66.983)" fill="#ecb55c"/>
        <g id="Group_213" data-name="Group 213" transform="translate(33.317 134.737)" clip-path="url(#clip-path)">
          <path id="Path_316" data-name="Path 316" d="M357.462,235.3l-3.893-3.893-31.5,31.5-11.932-11.932,31.5-31.5-3.893-3.893-31.508,31.5-11.925-11.953,31.5-31.5-3.893-3.893-31.5,31.5L278.486,219.31l31.5-31.5-3.893-3.893-31.494,31.5-11.932-11.932,31.494-31.5-3.886-3.893-31.5,31.5-11.932-11.932,31.5-31.494-3.9-3.864-31.5,31.5-11.925-11.932,31.494-31.5-3.893-3.893-31.508,31.5L215.18,156.046l31.5-31.5-3.871-3.857-31.5,31.5-11.932-11.932,31.5-31.5-3.893-3.893-31.5,31.5-11.932-11.925,31.5-31.508-3.893-3.886-31.5,31.5-11.932-11.932,31.5-31.5-3.907-3.928-31.5,31.5L151.894,92.754l31.494-31.5L179.5,57.36,147.988,88.9,116.515,57.36l-3.893,3.893,31.5,31.5-11.932,11.932-31.5-31.5L96.8,77.077l31.5,31.5-11.932,11.932-31.5-31.5L80.972,92.9l31.5,31.5-11.925,11.932-31.508-31.5-3.886,3.893,31.5,31.5L84.724,152.154l-31.5-31.466L49.33,124.58l31.5,31.5L68.9,168.014,37.4,136.477,33.54,140.37l31.5,31.5L53.109,183.8,21.573,152.3l-3.886,3.893,31.5,31.494L37.256,199.621l-31.5-31.5-3.893,3.893,31.5,31.5L21.431,215.446l-31.5-31.5-3.893,3.893,31.5,31.5L5.607,231.271l-31.5-31.5-3.893,3.893L1.749,235.135l-11.968,11.953-31.5-31.494-3.886,3.886,31.494,31.5-11.932,11.932-31.494-31.5L-61.43,235.3l31.5,31.5-31.5,31.5,3.893,3.893,31.494-31.5,11.932,11.932-31.473,31.494,3.886,3.893,31.5-31.494L1.749,298.448l-31.5,31.5,3.893,3.893,31.5-31.5,11.9,11.918-31.5,31.515,3.893,3.893,31.5-31.5L33.364,330.1l-31.5,31.494,3.893,3.893,31.5-31.5,11.932,11.932-31.5,31.5,3.886,3.893,31.5-31.494,11.932,11.932L33.54,393.242l3.893,3.893,31.5-31.494,11.932,11.925-31.537,31.5,3.893,3.893,31.494-31.5,11.932,11.925L65.154,424.892l3.886,3.886,31.5-31.494,11.932,11.932-31.5,31.5,3.893,3.886,31.5-31.5L128.3,425.033l-31.5,31.5,3.893,3.893,31.5-31.5,11.932,11.932-31.5,31.5,3.893,3.893,31.473-31.5,31.494,31.5,3.893-3.893-31.466-31.5,11.925-11.932,31.487,31.5,3.893-3.893-31.487-31.5L179.658,413.1l31.5,31.508,3.893-3.893-31.5-31.5,11.932-11.932,31.5,31.5,3.893-3.893-31.5-31.508L211.3,381.451l31.508,31.5,3.893-3.893-31.508-31.5,11.918-11.925,31.5,31.5,3.893-3.893-31.5-31.5,11.932-11.925,31.508,31.5,3.893-3.893-31.5-31.5,11.932-11.932,31.5,31.5,3.886-3.893-31.494-31.5,11.932-11.932,31.494,31.5,3.893-3.893-31.494-31.515,11.932-11.932,31.5,31.5,3.893-3.893-31.5-31.5,11.925-11.911,31.5,31.494,3.893-3.893-31.5-31.494L322.061,270.7l31.508,31.5,3.893-3.893-31.5-31.5Zm-55.1,15.676-11.939,11.932-11.932-11.932,11.932-11.932Zm-150.477,0,11.925-11.932,11.932,11.939-11.932,11.925Zm8.04,15.825-11.932,11.932-11.932-11.932,11.932-11.932Zm-11.932-19.717-11.9-11.953,11.9-11.9,11.96,11.9Zm-3.893,3.893-11.932,11.932-11.932-11.932,11.932-11.932ZM128.27,266.806l-11.932,11.932-11.932-11.932,11.932-11.932Zm3.893,3.893,11.932,11.932-11.932,11.932-11.932-11.932Zm15.825,15.825,11.932,11.925-11.932,11.932-11.932-11.932Zm3.893-3.893L163.805,270.7l11.932,11.932-11.932,11.932ZM167.7,266.806l11.932-11.932,11.932,11.932L179.63,278.738Zm15.825-15.818,11.932-11.939,11.932,11.932-11.932,11.932ZM179.63,247.1l-11.9-11.96,11.932-11.925,11.932,11.925Zm-15.825-15.825L151.88,219.338l11.925-11.932,11.932,11.932Zm-15.818-15.825-11.932-11.932,11.932-11.932,11.932,11.932Zm-3.893,3.893-11.932,11.932-11.932-11.932,11.932-11.932Zm-15.8,15.8-11.932,11.932-11.932-11.932,11.932-11.925ZM112.474,250.96l-11.932,11.932-11.9-11.911,11.932-11.932ZM96.649,266.785,84.724,278.717,72.791,266.785l11.925-11.932Zm3.893,3.893,11.932,11.932-11.932,11.932-11.9-11.911ZM116.366,286.5,128.3,298.427l-11.932,11.932-11.932-11.932Zm15.825,15.818,11.932,11.939-11.932,11.932-11.932-11.932Zm15.825,15.825,11.932,11.932-11.96,11.953L136.062,330.1Zm3.893-3.893,11.925-11.932,11.932,11.939-11.932,11.932Zm15.818-15.825L179.658,286.5l11.932,11.925-11.932,11.932Zm15.825-15.818,11.932-11.932,11.932,11.932-11.932,11.932Zm15.825-15.825L211.3,254.852l11.932,11.932L211.3,278.717Zm15.818-15.825,11.918-11.911,11.932,11.932-11.932,11.932Zm-3.893-3.893-11.925-11.932L211.308,223.2l11.925,11.932Zm-15.818-15.818-11.932-11.932,11.932-11.932,11.932,11.932Zm-15.825-15.825-11.932-11.932,11.932-11.932,11.932,11.932ZM163.834,199.6l-11.925-11.932,11.925-11.876,11.932,11.932Zm-15.846-15.8-11.932-11.925,11.932-11.932,11.932,11.932Zm-3.893,3.893-11.932,11.932-11.932-11.932,11.96-11.9ZM128.27,203.514l-11.932,11.932-11.932-11.932,11.932-11.932Zm-15.825,15.825-11.932,11.932L88.644,219.338l11.932-11.932Zm-15.8,15.8L84.717,247.067,72.791,235.135,84.724,223.2ZM80.831,250.96,68.9,262.892,56.967,250.96,68.9,239.028ZM65.006,266.785,53.074,278.717,41.142,266.806l11.932-11.932Zm3.893,3.893,11.932,11.932L68.9,294.542,56.967,282.609ZM84.724,286.5l11.925,11.925L84.724,310.359,72.791,298.427Zm15.818,15.818,11.932,11.939-11.925,11.932-11.9-11.932Zm15.825,15.825L128.3,330.077l-11.932,11.932-11.932-11.932Zm15.825,15.825L144.123,345.9l-11.932,11.932L120.259,345.9Zm15.8,15.846,11.939,11.925-11.939,11.932-11.932-11.932Zm3.9-3.893,11.925-11.932,11.932,11.932-11.932,11.932ZM167.705,330.1l11.932-11.932L191.569,330.1,179.637,342.03Zm15.825-15.825,11.932-11.932,11.953,11.918-11.932,11.932Zm15.825-15.825,11.925-11.925,11.932,11.925-11.925,11.932Zm15.818-15.818L227.112,270.7l11.932,11.932-11.932,11.932ZM231,266.806l11.932-11.932,11.932,11.932-11.932,11.932Zm15.825-15.825,11.932-11.932,11.932,11.932-11.932,11.932Zm-3.893-3.893-11.911-11.953,11.932-11.925,11.932,11.925Zm-15.818-15.818-11.925-11.932,11.925-11.932,11.925,11.932Zm-15.818-15.825-11.932-11.932,11.932-11.932,11.932,11.932Zm-15.825-15.825-11.932-11.932,11.946-11.9,11.932,11.932ZM179.644,183.8l-11.932-11.925,11.932-11.932,11.932,11.932Zm-15.825-15.818-11.925-11.932,11.925-11.932,11.932,11.932Zm-15.832-15.825-11.932-11.932,11.932-11.932,11.932,11.932Zm-3.893,3.893-11.932,11.932-11.932-11.932,11.932-11.932ZM128.27,171.871,116.338,183.8l-11.932-11.925,11.932-11.932Zm-15.825,15.818L100.52,199.621,88.644,187.689l11.9-11.9ZM96.628,203.514,84.7,215.446,72.763,203.514,84.7,191.581ZM80.8,219.338,68.871,231.271,56.938,219.338l11.932-11.932Zm-15.8,15.8L53.074,247.06,41.142,235.135,53.074,223.2ZM49.188,250.981,37.256,262.913,25.317,250.981l11.939-11.932ZM33.364,266.806,21.431,278.738,9.52,266.806l11.932-11.932Zm3.893,3.893,11.925,11.932L37.256,294.563,25.324,282.631Zm15.818,15.825,11.932,11.925L53.074,310.381,41.142,298.448ZM68.9,302.341l11.932,11.918L68.9,326.191,56.967,314.259Zm15.825,15.825L96.656,330.1,84.724,342.03,72.791,330.1Zm15.825,15.825,11.925,11.932-11.932,11.932-11.9-11.932Zm15.818,15.825L128.3,361.741l-11.932,11.932-11.932-11.932Zm15.825,15.818,11.932,11.932L132.191,389.5l-11.932-11.932Zm15.825,15.825,11.932,11.925-11.96,11.939-11.9-11.939Zm3.893-3.893,11.925-11.932,11.932,11.932L163.834,389.5Zm15.818-15.825,11.932-11.925,11.932,11.925-11.932,11.932Zm15.825-15.818,11.932-11.932,11.932,11.925-11.932,11.939ZM199.376,330.1l11.932-11.932L223.233,330.1,211.3,342.03ZM215.2,314.273l11.911-11.932,11.946,11.918-11.946,11.946Zm15.818-15.825,11.932-11.925,11.932,11.925-11.932,11.932Zm15.825-15.818L258.775,270.7l11.932,11.932-11.932,11.932Zm15.825-15.825L274.6,254.874l11.932,11.932L274.6,278.738Zm23.864-31.671L274.6,247.06l-11.932-11.925L274.6,223.21ZM270.708,219.31l-11.932,11.932L246.843,219.31l11.932-11.932Zm-15.825-15.825-11.932,11.932-11.925-11.932,11.925-11.932Zm-15.818-15.825-11.953,11.96L215.18,187.689l11.932-11.9ZM223.24,171.843l-11.932,11.925-11.932-11.925,11.932-11.932Zm-15.825-15.825L195.483,167.95l-11.932-11.932,11.932-11.932Zm-15.825-15.825-11.932,11.932-11.932-11.932,11.932-11.932Zm-15.825-15.825L163.834,136.3l-11.925-11.932,11.925-11.932Zm-27.778-27.7L159.92,108.6l-11.932,11.911-11.932-11.932Zm-15.825,15.818,11.932,11.932L132.163,136.35l-11.932-11.932ZM116.338,128.31l11.932,11.932-11.932,11.932-11.932-11.932ZM100.52,144.135l11.925,11.932L100.52,168,88.644,156.046ZM84.7,159.96l11.932,11.932L84.7,183.817,72.763,171.892ZM68.9,175.792l11.932,11.932L68.9,199.656,56.967,187.724ZM53.074,191.617l11.932,11.932L53.074,215.481,41.142,203.514ZM37.256,207.442l11.932,11.932-11.932,11.9L25.317,219.338ZM21.431,223.266l11.932,11.869L21.431,247.088,9.52,235.135ZM5.607,239.084l11.932,11.932-11.932,11.9L-6.326,250.981Zm-27.757,27.722,11.932-11.932L1.749,266.806l-11.968,11.932Zm15.825,15.825L5.607,270.7l11.932,11.932L5.607,294.563ZM9.52,298.448l11.932-11.925,11.932,11.925L21.431,310.381Zm15.8,15.811,11.939-11.932,11.932,11.932L37.256,326.205Zm15.825,15.825,11.932-11.932,11.932,11.932L53.074,342.016Zm15.825,15.825L68.9,333.977l11.932,11.932L68.9,357.841Zm15.825,15.825L84.724,349.8l11.925,11.925L84.717,373.673Zm15.853,15.832,11.932-11.932,11.932,11.932L100.541,389.5Zm15.825,15.825L116.4,381.458l11.9,11.925-11.932,11.939Zm15.825,15.825,11.932-11.932,11.932,11.932-11.968,11.932Zm27.693,27.757-11.932-11.939L147.988,413.1l11.932,11.932Zm15.818-15.825L151.88,409.215l11.925-11.932,11.932,11.932Zm15.825-15.825-11.9-11.939,11.932-11.932,11.932,11.932ZM195.455,389.5l-11.932-11.932,11.932-11.932,11.932,11.932Zm15.818-15.825-11.932-11.932,11.932-11.932L223.2,361.741Zm15.839-15.818L215.18,345.916l11.932-11.925,11.932,11.932Zm15.825-15.825L231,330.1l11.932-11.932L254.869,330.1Zm15.825-15.825-11.918-11.946,11.932-11.932,11.932,11.932Zm15.825-15.825-11.932-11.932,11.932-11.925,11.932,11.925ZM290.4,294.563l-11.932-11.932L290.4,270.7l11.939,11.932Zm15.825-15.825L294.3,266.806l11.939-11.932,11.932,11.932Z" transform="translate(-92.763 -159.345)" fill="#da741d"/>
          <path id="Path_317" data-name="Path 317" d="M357.462,232.275l-3.893-3.893-31.5,31.5-11.932-11.932,31.5-31.5-3.893-3.893-31.508,31.5-11.925-11.932,31.5-31.5-3.893-3.893-31.5,31.508-11.932-11.932,31.5-31.515-3.893-3.893L274.6,212.416l-11.932-11.932,31.494-31.5-3.886-3.893-31.5,31.5-11.932-11.932,31.5-31.5-3.893-3.886-31.5,31.5-11.925-11.932,31.494-31.5-3.893-3.893-31.515,31.5L215.2,153l31.5-31.5-3.893-3.893-31.5,31.5-11.932-11.932,31.5-31.508-3.893-3.893-31.5,31.5-11.932-11.932,31.5-31.5-3.893-3.886-31.5,31.5-11.932-11.932,31.5-31.5-3.907-3.871-31.5,31.5L151.894,89.724l31.494-31.5L179.5,54.33l-31.508,31.5-31.473-31.5-3.893,3.893,31.5,31.5-11.932,11.932-31.5-31.5L96.8,74.047l31.5,31.5-11.932,11.925L84.865,85.98l-3.893,3.886,31.5,31.5L100.548,133.3,69.04,101.8l-3.886,3.893,31.5,31.5L84.724,149.124l-31.5-31.5-3.893,3.893L80.831,153,68.9,164.934,37.4,133.447,33.54,137.34l31.5,31.494L53.074,180.766l-31.5-31.494-3.886,3.886,31.5,31.5L37.256,196.591l-31.5-31.5-3.893,3.893,31.5,31.5L21.431,212.416l-31.5-31.5-3.893,3.878,31.5,31.5L5.607,228.241l-31.5-31.5-3.893,3.893L1.749,232.126l-11.968,11.932-31.5-31.494-3.886,3.886,31.494,31.5-11.932,11.932-31.494-31.5-3.893,3.893,31.5,31.5-31.5,31.5,3.893,3.893,31.494-31.5L-14.111,279.6l-31.473,31.494,3.886,3.893,31.5-31.494L1.749,295.418l-31.5,31.5,3.893,3.893,31.466-31.5L17.539,311.25l-31.5,31.494,3.893,3.893,31.5-31.5,11.932,11.932-31.5,31.515,3.893,3.886,31.5-31.508,11.932,11.932-31.5,31.494,3.886,3.893,31.5-31.5,11.932,11.932-31.466,31.5,3.893,3.893,31.5-31.5,11.932,11.932-31.537,31.5,3.893,3.893,31.494-31.5,11.932,11.946L65.154,421.869l3.886,3.893,31.5-31.494L112.474,406.2l-31.5,31.508,3.893,3.893,31.5-31.5L128.3,422.031l-31.5,31.5,3.893,3.893,31.5-31.5,11.932,11.932-31.5,31.5,3.893,3.893,31.473-31.53,31.494,31.5,3.893-3.893-31.494-31.5L163.805,425.9l31.515,31.5,3.893-3.893-31.5-31.5,11.932-11.932,31.5,31.5,3.893-3.886-31.5-31.5,11.932-11.932,31.5,31.5,3.893-3.893-31.487-31.487L211.3,378.442l31.508,31.5,3.893-3.893-31.508-31.5L227.112,362.6l31.5,31.5,3.893-3.893-31.5-31.5,11.932-11.932,31.508,31.5,3.893-3.886-31.5-31.5,11.932-11.932,31.5,31.5,3.886-3.893-31.494-31.5,11.932-11.932,31.494,31.5,3.893-3.893L278.486,311.25l11.932-11.932,31.5,31.5,3.893-3.893-31.5-31.5,11.925-11.939,31.5,31.508,3.893-3.893-31.494-31.5,11.932-11.932,31.5,31.5,3.893-3.893-31.5-31.5Zm-55.1,15.676-11.939,11.932-11.932-11.932,11.932-11.932Zm-150.477,0,11.925-11.932,11.932,11.932-11.932,11.932Zm8.04,15.825-11.932,11.932-11.9-11.932,11.9-11.932Zm-11.932-19.717-11.9-11.932,11.9-11.925,11.96,11.925Zm-3.893,3.893-11.932,11.932-11.9-11.932,11.932-11.932ZM128.27,263.776l-11.932,11.932-11.9-11.932,11.932-11.932Zm3.893,3.893L144.095,279.6l-11.932,11.932-11.9-11.932Zm15.825,15.825,11.932,11.925-11.932,11.932-11.9-11.925Zm3.893-3.893,11.925-11.932L175.738,279.6l-11.932,11.925ZM167.7,263.776l11.932-11.932,11.932,11.932L179.63,275.708Zm15.825-15.825,11.932-11.932,11.932,11.932-11.932,11.932Zm-3.893-3.893-11.9-11.932L179.658,220.2l11.932,11.925Zm-15.825-15.818L151.88,216.308l11.925-11.932,11.932,11.932Zm-15.818-15.825-11.932-11.932,11.932-11.932,11.932,11.932Zm-3.893,3.893-11.9,11.932-11.932-11.932,11.932-11.932Zm-15.8,15.818-11.932,11.932-11.932-11.932,11.932-11.932Zm-15.825,15.825-11.932,11.932-11.9-11.932,11.932-11.932ZM96.649,263.776,84.724,275.708,72.791,263.776l11.925-11.932Zm3.893,3.893L112.474,279.6l-11.932,11.932L88.644,279.6Zm15.825,15.825L128.3,295.425l-11.932,11.932-11.932-11.939Zm15.825,15.825,11.932,11.932-11.932,11.932L120.259,311.25Zm15.8,15.818,11.932,11.932L147.988,339l-11.925-11.932Zm3.893-3.893,11.925-11.932,11.96,11.939-11.932,11.932ZM167.7,295.418l11.932-11.932,11.932,11.932L179.63,307.351ZM183.523,279.6l11.932-11.932L207.387,279.6l-11.932,11.925Zm15.825-15.825,11.925-11.932L223.2,263.776l-11.932,11.932Zm15.818-15.825,11.946-11.932,11.932,11.932-11.932,11.932Zm-3.893-3.893-11.9-11.932,11.932-11.932,11.925,11.932Zm-15.789-15.818-11.932-11.932,11.932-11.932,11.932,11.932Zm-15.825-15.825-11.932-11.932,11.932-11.932,11.932,11.932Zm-15.825-15.825-11.925-11.932,11.925-11.932,11.932,11.932Zm-15.846-15.825-11.932-11.925,11.932-11.932,11.932,11.925Zm-3.893,3.893-11.9,11.932-11.932-11.932,11.932-11.932ZM128.27,200.484l-11.9,11.932-11.932-11.932,11.932-11.932Zm-15.825,15.825-11.9,11.932-11.9-11.932,11.932-11.932Zm-15.8,15.818L84.717,244.058,72.791,232.126l11.932-11.932ZM80.831,247.951,68.9,259.883,56.967,247.951,68.9,236.019ZM65.006,263.776,53.074,275.708,41.142,263.776l11.932-11.932Zm3.893,3.893L80.831,279.6,68.9,291.533,56.967,279.6Zm15.825,15.825,11.925,11.925L84.724,307.351,72.791,295.418Zm15.818,15.818,11.932,11.939-11.925,11.932-11.9-11.932Zm15.825,15.825L128.3,327.068,116.366,339l-11.932-11.932Zm15.825,15.825,11.932,11.932-11.932,11.932-11.932-11.932Zm15.8,15.818,11.939,11.932L147.988,370.65l-11.932-11.939Zm3.9-3.886,11.925-11.932,11.932,11.932-11.932,11.932Zm15.818-15.825,11.932-11.932,11.932,11.932L179.637,339Zm15.825-15.825,11.932-11.932,11.953,11.939-11.932,11.932Zm15.825-15.825,11.925-11.932,11.932,11.932-11.925,11.932ZM215.172,279.6l11.939-11.932L239.044,279.6l-11.932,11.932ZM231,263.776l11.932-11.932,11.932,11.932-11.932,11.932Zm15.825-15.825,11.932-11.932,11.932,11.932-11.932,11.932Zm-3.893-3.893-11.911-11.932,11.932-11.932,11.932,11.932Zm-15.818-15.818-11.925-11.932,11.925-11.932,11.925,11.932Zm-15.818-15.825-11.932-11.932,11.932-11.932,11.932,11.932Zm-15.825-15.825-11.932-11.932,11.932-11.932L207.4,184.659Zm-15.825-15.825-11.932-11.932,11.932-11.925,11.932,11.932Zm-15.825-15.818L151.908,153l11.925-11.932L175.766,153Zm-15.832-15.825-11.932-11.932,11.932-11.932,11.932,11.932ZM144.123,153l-11.932,11.932L120.259,153l11.932-11.932ZM128.3,168.827l-11.932,11.939-11.932-11.925,11.932-11.932Zm-15.825,15.818-11.925,11.946-11.9-11.932,11.932-11.932ZM96.656,200.469,84.724,212.416,72.791,200.484l11.932-11.932ZM80.831,216.294,68.9,228.241,56.967,216.308,68.9,204.376ZM65.006,232.126,53.074,244.051,41.142,232.126l11.932-11.932ZM49.188,247.951,37.256,259.883,25.317,247.951l11.939-11.932ZM33.364,263.776,21.431,275.708,9.52,263.776l11.932-11.932Zm3.893,3.893L49.181,279.6,37.256,291.526,25.324,279.6Zm15.818,15.818,11.932,11.932L53.074,307.351,41.142,295.418ZM68.9,299.311,80.831,311.25,68.9,323.183,56.967,311.25Zm15.825,15.825,11.932,11.932L84.724,339,72.791,327.068Zm15.825,15.825,11.925,11.932-11.932,11.932-11.9-11.932Zm15.818,15.818L128.3,358.711l-11.932,11.932-11.932-11.932ZM132.191,362.6l11.932,11.932-11.932,11.932-11.932-11.932Zm15.825,15.825,11.932,11.946-11.96,11.918-11.9-11.918Zm3.893-3.893L163.834,362.6l11.932,11.932-11.932,11.932Zm15.818-15.825,11.932-11.932,11.932,11.932L179.658,370.65Zm15.825-15.818,11.932-11.932,11.932,11.932-11.932,11.932Zm15.825-15.825,11.932-11.932,11.925,11.932L211.3,339ZM215.2,311.243l11.911-11.932,11.946,11.939-11.946,11.925Zm15.818-15.825,11.932-11.925,11.932,11.925-11.932,11.932ZM246.843,279.6l11.932-11.932,11.932,11.925-11.932,11.932Zm15.825-15.825L274.6,251.844l11.932,11.932L274.6,275.7Zm23.864-31.65L274.6,244.051l-11.932-11.925L274.6,220.2ZM270.708,216.3l-11.932,11.939-11.932-11.932,11.932-11.932Zm-15.825-15.825-11.932,11.939-11.925-11.932,11.925-11.932Zm-15.818-15.825-11.953,11.939L215.18,184.659l11.932-11.932ZM223.24,168.834l-11.932,11.932-11.932-11.925,11.932-11.932ZM207.415,153l-11.932,11.932L183.551,153l11.932-11.932Zm-15.825-15.825-11.932,11.932-11.932-11.932,11.932-11.932Zm-15.825-15.825-11.932,11.932-11.925-11.932,11.925-11.932ZM147.988,93.617l11.932,11.932-11.932,11.925-11.932-11.925Zm-15.825,15.818,11.932,11.932L132.163,133.3l-11.932-11.932Zm-15.825,15.825,11.932,11.932-11.932,11.932-11.932-11.932ZM100.52,141.084,112.474,153l-11.925,11.932L88.644,153ZM84.7,156.909l11.932,11.932-11.9,11.925L72.791,168.834ZM68.871,172.727,80.8,184.659,68.9,196.591,56.967,184.659ZM53.046,188.551l11.932,11.932-11.9,11.932L41.142,200.484ZM37.228,204.376,49.16,216.308l-11.9,11.932L25.317,216.308ZM21.4,220.2l11.96,11.925L21.431,244.058,9.52,232.126ZM5.578,236.019l11.96,11.932L5.607,259.883-6.326,247.951Zm-27.729,27.757,11.932-11.932L1.749,263.776l-11.968,11.932ZM-6.326,279.6,5.607,267.668,17.539,279.6,5.607,291.533ZM9.52,295.418l11.911-11.932,11.932,11.932L21.431,307.351Zm15.8,15.832,11.939-11.932L49.188,311.25,37.256,323.175Zm15.825,15.825,11.932-11.932,11.932,11.932L53.074,339.007ZM56.967,342.9,68.9,330.968,80.831,342.9,68.9,354.832Zm15.825,15.818,11.932-11.932,11.925,11.932L84.717,370.657Zm15.853,15.818L100.577,362.6l11.932,11.932-11.932,11.932Zm15.825,15.825L116.4,378.428l11.9,11.946-11.932,11.932Zm15.825,15.825,11.932-11.932,11.932,11.925L132.226,418.11Zm27.693,27.75L136.055,422l11.932-11.932L159.92,422Zm15.818-15.825L151.88,406.178l11.925-11.925,11.932,11.932Zm15.825-15.818-11.9-11.918,11.932-11.932,11.932,11.932Zm15.825-15.825-11.932-11.932L195.455,362.6l11.932,11.932Zm15.818-15.818-11.932-11.939,11.932-11.932L223.2,358.711ZM227.1,354.825l-11.932-11.932,11.946-11.932,11.932,11.932ZM242.922,339,230.99,327.068l11.932-11.932,11.932,11.932Zm15.825-15.825-11.9-11.925,11.932-11.932,11.932,11.932Zm15.825-15.825L262.64,295.418l11.932-11.932L286.5,295.418Zm15.818-15.825-11.932-11.932,11.932-11.925L302.329,279.6Zm15.846-15.818-11.925-11.932,11.925-11.932,11.939,11.932Z" transform="translate(-92.763 -158.456)" fill="#f6d184"/>
        </g>
        <path id="Path_319" data-name="Path 319" d="M168.861,201.72h-7.446a4.592,4.592,0,0,0-4.4,5.878l50.668,173.289a4.585,4.585,0,0,0,8.8,0l13.868-47.432C197.219,308.467,173.446,259.565,168.861,201.72Z" transform="translate(-123.513 -66.983)" fill="#e1892b" opacity="0.3"/>
        <g id="Group_214" data-name="Group 214" transform="translate(33.317 134.737)" clip-path="url(#clip-path)">
          <path id="Path_320" data-name="Path 320" d="M237.491,112.71a54.264,54.264,0,0,0-38.425,16,54,54,0,0,0-34.355-12.335,55.041,55.041,0,0,0-55.041,55.041c0,18.262,7.156,28.866,19.117,41.54,7.467,7.919,6.888,15.924,12.851,24.458,4.3,6.125,13.084,12.554,16.305,2.451a.77.77,0,0,1,.035-.12c1.872-6.634-6.16-16.5-9.325-21.844,3.412-.706,6.415,2.07,10.18,1.349,8.365-1.6,7.693-16.129,17.761-15.542,11.925.706,10.272,19.47,25.136,8.76a23.473,23.473,0,0,0,2.24-1.872c6.627,2.119,10.067-5.383,17.52-4.006,4.408.812,4.076,3.193,5.369,6.662,1.639,4.408,4.331,5.864,7.128,9.445,3.285,4.239.94,10.873,3.49,15.507,5.228,9.509,10.71-.261,11.07-6.45.332-5.7,1.943-6.7,6.881-9.184,19.018-9.495,37.118-32.723,37.118-54.864a55.041,55.041,0,0,0-55.055-55Z" transform="translate(-142.987 -175.592)" fill="#ecb55c"/>
        </g>
        <path id="Path_322" data-name="Path 322" d="M167.656,92.872c-3.836-7.474-6.358-15.966-6.789-22.3C158.719,38.934,183.777,11,215.794,11a55.039,55.039,0,0,1,55.034,55.034c0,17.266-14.412,29.82-12.6,45.828,1,8.859,8,29.756-4,34.348-13.239,5.065-8.675-30.993-14.97-35.684-7.771-5.814-10.505,4.7-17.577,3.349-8.372-1.611-7.7-16.129-17.768-15.542-11.918.706-10.265,19.477-25.136,8.76C174.516,104.034,170.679,98.771,167.656,92.872Z" transform="translate(-124.66 -11)" fill="#fded4a"/>
        <path id="Path_323" data-name="Path 323" d="M212.849,175.109c3.836-7.481,6.358-15.973,6.782-22.3,2.119-31.65-22.9-59.583-54.921-59.583a55.041,55.041,0,0,0-55.041,55.041c0,18.262,7.156,28.866,19.117,41.54,7.467,7.919,6.888,15.924,12.851,24.458,4.3,6.125,13.084,12.526,16.305,2.43a.771.771,0,0,1,.035-.12c1.872-6.641-6.16-16.5-9.325-21.844,3.412-.706,6.415,2.07,10.18,1.349,8.365-1.6,7.693-16.129,17.761-15.542,11.925.706,10.272,19.47,25.136,8.76C205.982,186.264,209.826,181,212.849,175.109Z" transform="translate(-109.67 -35.137)" fill="#c77625"/>
        <path id="Path_324" data-name="Path 324" d="M169.19,191.52c-25.631,0-47.736-15.655-58.036-38.29a54.892,54.892,0,0,0-1.484,12.653c0,18.262,7.156,28.866,19.117,41.54,7.467,7.919,6.888,15.924,12.851,24.458,4.3,6.125,13.084,12.526,16.305,2.43a.771.771,0,0,1,.035-.12c1.872-6.641-6.16-16.5-9.325-21.844,3.412-.706,6.415,2.07,10.18,1.349,8.365-1.6,7.693-16.129,17.761-15.542,11.925.706,10.272,19.47,25.136,8.76,4.239-3.08,8.11-8.343,11.134-14.235,3.836-7.481,6.358-15.973,6.782-22.3.106-1.547.127-3.073.106-4.6C207.982,181.467,189.734,191.52,169.19,191.52Z" transform="translate(-109.67 -52.749)" fill="#c77625"/>
        <path id="Path_325" data-name="Path 325" d="M219.589,169.9c-3.829-7.474-6.358-15.966-6.782-22.3C210.659,115.962,235.717,88,267.727,88a55.041,55.041,0,0,1,55.041,55.1c0,22.141-18.1,45.369-37.118,54.864-4.945,2.466-6.549,3.455-6.881,9.184-.36,6.189-5.842,15.959-11.07,6.45-2.55-4.641-.2-11.3-3.49-15.507-2.826-3.582-5.489-5.044-7.128-9.445-1.293-3.469-.961-5.85-5.369-6.662-8.647-1.6-11.883,8.774-20.989,2.2C226.449,181.056,222.612,175.792,219.589,169.9Z" transform="translate(-139.906 -33.602)" fill="#e3a177"/>
        <path id="Path_326" data-name="Path 326" d="M269.6,195.093a65.552,65.552,0,0,1-56.807-32.821,55.712,55.712,0,0,0,.008,7.134c.431,6.358,2.953,14.836,6.782,22.3,3.024,5.892,6.86,11.155,11.134,14.235,9.106,6.57,12.342-3.808,20.989-2.2,4.408.812,4.076,3.193,5.369,6.662,1.639,4.4,4.331,5.864,7.128,9.445,3.285,4.239.94,10.865,3.49,15.507,5.228,9.509,10.71-.261,11.07-6.45.332-5.708,1.943-6.7,6.881-9.184,18.1-9.036,35.323-30.512,36.983-51.657A65.5,65.5,0,0,1,269.6,195.093Z" transform="translate(-139.908 -55.403)" fill="#e3a177"/>
        <g id="Group_215" data-name="Group 215" transform="translate(142.557 67.904)" opacity="0.5">
          <path id="Path_327" data-name="Path 327" d="M315.529,122.577c.8.558.883.615.254.162.41.346.805.706,1.187,1.088s.756.777,1.109,1.18c1.731,1.893-.777-1.194.742.918a47.219,47.219,0,0,1,3.85,6.655c2.006,4.027,7.609,5.122,11.3,2.96,4.076-2.381,4.945-7.262,2.967-11.3-3.158-6.358-7.192-11.869-13.063-15.931-3.709-2.564-9.149-.706-11.3,2.967-2.4,4.1-.706,8.739,2.96,11.3Z" transform="translate(-311.459 -107.117)" fill="#fffcf5"/>
        </g>
        <g id="Group_216" data-name="Group 216" transform="translate(17.794 68.794)" opacity="0.5">
          <path id="Path_328" data-name="Path 328" d="M157.275,123.83c-.791.558-.876.615-.254.162-.4.346-.8.706-1.18,1.088s-.756.77-1.109,1.18c-1.731,1.893.777-1.194-.742.918a47.221,47.221,0,0,0-3.85,6.655c-2.006,4.027-7.609,5.122-11.3,2.96-4.069-2.381-4.945-7.27-2.96-11.3,3.158-6.358,7.192-11.869,13.063-15.924,3.709-2.564,9.149-.706,11.3,2.96C162.644,116.631,160.949,121.272,157.275,123.83Z" transform="translate(-134.857 -108.377)" fill="#fffcf5"/>
        </g>
        <g id="Group_217" data-name="Group 217" transform="translate(36.078)" clip-path="url(#clip-path-3)">
          <path id="Path_329" data-name="Path 329" d="M209.9,34.122c.113,2.564-.29,5.6.3,8.11.982,4.161,5.539,12.165,10.456,9.3,5.941-3.448,1.907-13.585,3.765-18.728,4.8-13.267,9.693,7.326,15.959,6.768,4.882-.424,5.532-7.891,11.028-9.184,5.2-1.222,6.245,3.773,10.526,4.147,10.018.876,1.363-14.624-.89-17.8-4.543-6.4-12.01-9.566-19.463-11.1-14.355-2.946-35.91-1.363-46.266,10.54-2.466,2.826-5.687,9.3-3.073,12.9,3.01,4.147,7.022,0,10.95-.4C208.693,28.124,209.753,30.7,209.9,34.122Z" transform="translate(-169.702 -9.049)" fill="#76311e"/>
        </g>
        <g id="Group_218" data-name="Group 218" transform="translate(104.023 11.005)" opacity="0.5">
          <path id="Path_331" data-name="Path 331" d="M260.995,42.03c.8.558.883.615.254.162.41.346.805.706,1.187,1.088s.749.77,1.109,1.18c1.731,1.893-.777-1.194.742.918a47.87,47.87,0,0,1,3.843,6.655c2.006,4.027,7.609,5.122,11.3,2.96,4.069-2.381,4.945-7.27,2.96-11.3-3.151-6.358-7.192-11.869-13.055-15.924-3.709-2.564-9.184-.706-11.3,2.96-2.409,4.1-.706,8.739,2.96,11.3Z" transform="translate(-256.915 -26.577)" fill="#fffcf5"/>
        </g>
        <path id="Path_332" data-name="Path 332" d="M272.085,129.492a1.681,1.681,0,0,0-1.222,1.992h0c.106,1.024.827,1.78,1.6,1.7l11.9-1.222a1.683,1.683,0,0,0,1.229-1.992h0c-.106-1.017-.827-1.78-1.611-1.7Z" transform="translate(-156.974 -45.423)" fill="#fff"/>
        <path id="Path_333" data-name="Path 333" d="M336.645,112.436a1.668,1.668,0,0,0-2.119.968h0a1.674,1.674,0,0,0,.382,2.3l10.6,5.652a1.681,1.681,0,0,0,2.119-.961h0a1.688,1.688,0,0,0-.382-2.317Z" transform="translate(-175.585 -40.736)" fill="#fff"/>
        <path id="Path_334" data-name="Path 334" d="M304.639,105.737a1.68,1.68,0,0,0-.509-2.282h0a1.7,1.7,0,0,0-2.345-.092l-7.665,9.184a1.7,1.7,0,0,0,.516,2.289h0a1.665,1.665,0,0,0,2.338.078Z" transform="translate(-163.735 -37.987)" fill="#fff"/>
        <path id="Path_335" data-name="Path 335" d="M260.986,105.159a1.684,1.684,0,0,0-2.282.516h0a1.674,1.674,0,0,0-.092,2.331l9.184,7.708a1.677,1.677,0,0,0,2.282-.5h0a1.684,1.684,0,0,0,.1-2.345Z" transform="translate(-153.264 -38.561)" fill="#fff"/>
        <path id="Path_336" data-name="Path 336" d="M263.408,89.56A1.668,1.668,0,0,0,262,91.411h0a1.674,1.674,0,0,0,1.413,1.851l12.01.049a1.681,1.681,0,0,0,1.413-1.851h0a1.688,1.688,0,0,0-1.413-1.865Z" transform="translate(-154.379 -34.06)" fill="#fff"/>
        <path id="Path_337" data-name="Path 337" d="M259.178,146.154a1.668,1.668,0,0,0-2.282.487h0a1.674,1.674,0,0,0-.127,2.331l9.113,7.771a1.682,1.682,0,0,0,2.3-.48h0a1.7,1.7,0,0,0,.113-2.338Z" transform="translate(-152.728 -50.59)" fill="#fff"/>
        <path id="Path_338" data-name="Path 338" d="M194.224,89.709c-.77-.17-1.568.516-1.78,1.519h0a1.688,1.688,0,0,0,1.01,2.119l11.72,2.487a1.681,1.681,0,0,0,1.787-1.519h0a1.681,1.681,0,0,0-1.01-2.119Z" transform="translate(-133.941 -34.096)" fill="#fff"/>
        <path id="Path_339" data-name="Path 339" d="M219.809,117.959a1.674,1.674,0,0,0,2.338,0h0a1.688,1.688,0,0,0,.629-2.254l-7.22-9.573a1.674,1.674,0,0,0-2.338,0h0a1.688,1.688,0,0,0-.622,2.254Z" transform="translate(-139.823 -38.785)" fill="#fff"/>
        <path id="Path_340" data-name="Path 340" d="M170.8,101.737a1.667,1.667,0,0,0,2.331,0h0a1.674,1.674,0,0,0,.629-2.254l-7.213-9.551a1.674,1.674,0,0,0-2.338,0h0a1.681,1.681,0,0,0-.629,2.254Z" transform="translate(-125.433 -34.03)" fill="#fff"/>
        <path id="Path_341" data-name="Path 341" d="M130.584,118.027a1.681,1.681,0,0,0,1.116,2.056h0a1.682,1.682,0,0,0,2.275-.544l4.875-10.95a1.674,1.674,0,0,0-1.116-2.056h0a1.681,1.681,0,0,0-2.275.544Z" transform="translate(-115.791 -38.973)" fill="#fff"/>
        <path id="Path_342" data-name="Path 342" d="M183.527,103.735c-.777-.12-1.533.608-1.688,1.618h0a1.682,1.682,0,0,0,1.13,2.049l11.847,1.809c.784.12,1.54-.608,1.7-1.625h0a1.678,1.678,0,0,0-1.137-2.042Z" transform="translate(-130.846 -38.217)" fill="#fff"/>
        <path id="Path_343" data-name="Path 343" d="M207.085,139.4c-.12.777.6,1.533,1.618,1.688h0a1.677,1.677,0,0,0,2.049-1.123l1.865-11.833c.12-.784-.6-1.54-1.611-1.7h0a1.688,1.688,0,0,0-2.063,1.123Z" transform="translate(-138.261 -44.863)" fill="#fff"/>
        <path id="Path_344" data-name="Path 344" d="M190.058,145.994c.4.706,1.413.791,2.324.261h0a1.674,1.674,0,0,0,.855-2.169l-6.153-10.293a1.688,1.688,0,0,0-2.324-.276h0a1.7,1.7,0,0,0-.862,2.183Z" transform="translate(-131.421 -46.863)" fill="#fff"/>
        <path id="Path_345" data-name="Path 345" d="M243.124,119.781c-.127.777.586,1.547,1.6,1.71h0a1.674,1.674,0,0,0,2.056-1.1l1.964-11.819c.134-.784-.586-1.547-1.6-1.717h0a1.674,1.674,0,0,0-2.056,1.1Z" transform="translate(-148.839 -39.117)" fill="#fff"/>
      </g>
    </g>
  </g>
</svg>
